<svg aria-hidden="true" style="position:absolute;width:0;height:0;overflow:hidden" xmlns="http://www.w3.org/2000/svg">
  <defs>
    <symbol id="icon-nextjs_icon_dark" viewBox="0 0 32 32">
      <path stroke-width="1.067" d="M31.467 16c0 8.542-6.925 15.467-15.467 15.467S.533 24.542.533 16C.533 7.458 7.458.533 16 .533S31.467 7.458 31.467 16z"/>
      <path d="M26.579 28.004 12.292 9.6H9.6v12.795h2.154v-10.06l13.135 16.971a16.197 16.197 0 0 0 1.691-1.302z"/>
      <path d="M20.444 9.6h2.133v12.8h-2.133V9.6z"/>
    </symbol>
    <symbol id="icon-css_old" viewBox="0 0 32 32">
      <path fill="#264de4" style="fill:var(--color2, #264de4)" d="M4.46 28.801 1.892 0h28.216l-2.571 28.797L15.982 32z"/>
      <path fill="#2965f1" style="fill:var(--color3, #2965f1)" d="m25.337 26.963 2.197-24.608H16v27.197z"/>
      <path fill="#ebebeb" style="fill:var(--color4, #ebebeb)" d="m7.779 13.037.317 3.532h7.905v-3.532zM7.464 9.42H16V5.888H7.143zM16 22.211l-.015.004-3.934-1.062-.251-2.817H8.254l.495 5.546 7.236 2.009.016-.005z"/>
      <path fill="#fff" style="fill:var(--color1, #fff)" d="M15.988 13.037v3.532h4.35l-.41 4.581-3.94 1.063v3.675l7.242-2.007.053-.597.83-9.3.086-.948.638-7.15h-8.849v3.532h4.977l-.322 3.617z"/>
    </symbol>
    <symbol id="icon-figma" viewBox="0 0 22 32">
      <path fill="#0acf83" style="fill:var(--color5, #0acf83)" d="M5.333 32a5.335 5.335 0 0 0 5.333-5.333v-5.333H5.333C2.389 21.334 0 23.723 0 26.667S2.389 32 5.333 32z"/>
      <path fill="#a259ff" style="fill:var(--color6, #a259ff)" d="M0 16a5.335 5.335 0 0 1 5.333-5.333h5.333v10.667H5.333A5.335 5.335 0 0 1 0 16.001z"/>
      <path fill="#f24e1e" style="fill:var(--color7, #f24e1e)" d="M0 5.333A5.335 5.335 0 0 1 5.333 0h5.333v10.667H5.333A5.335 5.335 0 0 1 0 5.334z"/>
      <path fill="#ff7262" style="fill:var(--color8, #ff7262)" d="M10.667 0H16c2.944 0 5.333 2.389 5.333 5.333S18.944 10.666 16 10.666h-5.333V-.001z"/>
      <path fill="#1abcfe" style="fill:var(--color9, #1abcfe)" d="M21.333 16c0 2.944-2.389 5.333-5.333 5.333S10.667 18.944 10.667 16c0-2.944 2.389-5.333 5.333-5.333s5.333 2.389 5.333 5.333z"/>
    </symbol>
    <symbol id="icon-github-light" viewBox="0 0 33 32">
      <path d="M16.384 0C7.336 0 0 7.335 0 16.384c0 7.239 4.695 13.38 11.204 15.547.819.152 1.12-.355 1.12-.788 0-.391-.015-1.681-.022-3.05-4.558.991-5.52-1.933-5.52-1.933-.745-1.894-1.819-2.397-1.819-2.397-1.486-1.017.112-.996.112-.996 1.645.115 2.511 1.688 2.511 1.688 1.461 2.505 3.833 1.781 4.768 1.362.147-1.059.572-1.782 1.04-2.191-3.639-.414-7.465-1.819-7.465-8.097 0-1.789.64-3.25 1.688-4.398-.17-.413-.731-2.079.159-4.336 0 0 1.376-.44 4.507 1.679a15.692 15.692 0 0 1 4.101-.551c1.392.006 2.795.188 4.104.551 3.127-2.12 4.501-1.679 4.501-1.679.892 2.257.331 3.923.161 4.336 1.05 1.147 1.686 2.609 1.686 4.398 0 6.293-3.833 7.678-7.481 8.084.588.508 1.111 1.506 1.111 3.034 0 2.192-.019 3.956-.019 4.496 0 .436.295.947 1.125.786 6.506-2.169 11.195-8.308 11.195-15.544 0-9.049-7.336-16.384-16.384-16.384zM6.136 23.34c-.036.081-.164.106-.281.05-.119-.053-.186-.164-.147-.246.035-.084.164-.107.282-.051.119.053.187.166.146.247zm.806.719c-.078.072-.231.039-.335-.076-.107-.114-.127-.267-.048-.34.081-.072.229-.039.336.076.107.116.128.267.046.34zm.553.92c-.1.07-.265.004-.366-.141-.1-.146-.1-.32.002-.39s.263-.007.366.138c.1.148.1.323-.002.394zm.935 1.065c-.09.099-.281.072-.421-.063-.143-.132-.183-.32-.093-.419s.283-.071.424.063c.142.132.186.321.09.419zm1.209.36c-.04.128-.224.187-.409.132-.185-.056-.307-.206-.269-.336.039-.129.224-.19.411-.132.185.056.307.205.268.336zm1.375.153c.005.135-.153.247-.348.25-.196.004-.354-.105-.357-.238 0-.136.154-.247.35-.251.195-.004.354.105.354.239zm1.351-.052c.023.132-.112.267-.306.303-.19.035-.366-.047-.39-.177-.024-.135.114-.271.304-.306.194-.034.367.046.392.18z"/>
    </symbol>
    <symbol id="icon-html5" viewBox="0 0 28 32">
      <path fill="#e34f26" style="fill:var(--color10, #e34f26)" d="M2.523 28.308 0 0h27.754l-2.523 28.308-11.385 3.2z"/>
      <path fill="#ef652a" style="fill:var(--color11, #ef652a)" d="m13.908 29.046 9.169-2.523 2.154-24.246H13.908z"/>
      <path fill="#ecedee" style="fill:var(--color12, #ecedee)" d="M13.908 12.8H9.293l-.308-3.569h4.923V5.785H5.17l.923 10.523h7.815zm0 9.046L9.97 20.8l-.246-2.769H6.278l.431 5.477 7.2 1.969z"/>
      <path fill="#fff" style="fill:var(--color1, #fff)" d="M13.908 16.308h4.246l-.431 4.492-3.815 1.046v3.631l7.077-1.969.985-10.708h-8.062zm0-10.523v3.446h8.369l.308-3.446z"/>
    </symbol>
    <symbol id="icon-nodejs" viewBox="0 0 28 32">
      <path d="M14.786.201a1.532 1.532 0 0 0-1.517 0L.744 7.43A1.486 1.486 0 0 0 0 8.739v14.489c0 .536.298 1.041.744 1.309l12.525 7.229a1.532 1.532 0 0 0 1.517 0l12.525-7.229c.476-.268.744-.773.744-1.309V8.739c0-.535-.298-1.041-.744-1.309L14.786.201z"/>
      <path d="M27.341 7.43 14.756.201a2.122 2.122 0 0 0-.387-.149L.267 24.209c.119.149.268.268.416.357l12.585 7.229c.357.208.774.268 1.16.149L27.667 7.727a1.543 1.543 0 0 0-.327-.297z"/>
      <path d="M27.371 24.537a1.69 1.69 0 0 0 .744-.952L14.311.023c-.357-.059-.744-.03-1.071.178L.745 7.401l13.477 24.574c.178-.03.387-.089.565-.179l12.584-7.259z"/>
    </symbol>
    <symbol id="icon-npm" viewBox="0 0 32 32">
      <path fill="#cb3837" style="fill:var(--color13, #cb3837)" d="M.5 9.625h31v10.928H16v1.823H9.11v-1.823H.5zm1.723 9.108h3.445v-5.465h1.723v5.465h1.723v-7.285h-6.89zm8.609-7.286v9.105h3.445v-1.82h3.445v-7.285zm3.445 1.823H16v3.64h-1.723zm5.168-1.823v7.285h3.445v-5.465h1.723v5.465h1.723v-5.465h1.723v5.465h1.723v-7.285z"/>
    </symbol>
    <symbol id="icon-openai" viewBox="0 0 32 32">
      <path d="M29.438 13.071a7.81 7.81 0 0 0 .406-2.51 7.931 7.931 0 0 0-1.112-4.062l.02.037a8.047 8.047 0 0 0-8.664-3.86A8.075 8.075 0 0 0 6.429 5.509l-.017.057a7.994 7.994 0 0 0-5.3 3.821l-.02.038a8.048 8.048 0 0 0 .989 9.445 7.8 7.8 0 0 0-.409 2.518c0 1.481.404 2.867 1.109 4.055l-.02-.037a8.052 8.052 0 0 0 8.67 3.86 7.953 7.953 0 0 0 5.956 2.676h.047-.002a8.06 8.06 0 0 0 7.682-5.598 8.005 8.005 0 0 0 5.3-3.821l.02-.038a8.06 8.06 0 0 0-.995-9.413zm-12.007 16.78h-.009a5.927 5.927 0 0 1-3.828-1.393l.009.008.189-.107 6.359-3.671a1.06 1.06 0 0 0 .523-.906v-8.966l2.689 1.555a.092.092 0 0 1 .05.069v7.43a5.995 5.995 0 0 1-5.982 5.982zm-12.858-5.49a5.88 5.88 0 0 1-.801-2.982c0-.364.033-.72.095-1.065l-.005.036.189.113 6.366 3.671c.149.089.328.141.519.141s.371-.052.524-.144l-.005.003 7.776-4.483v3.104a.107.107 0 0 1-.044.082l-6.441 3.715a5.989 5.989 0 0 1-8.173-2.191zM2.898 10.508a6.003 6.003 0 0 1 3.107-2.612l.041-.013v7.569c0 .378.206.708.511.884l.005.003 7.738 4.464-2.689 1.555c-.014.007-.03.012-.047.012s-.034-.004-.048-.012h.001L5.088 18.65a5.994 5.994 0 0 1-2.191-8.173v.031zm22.088 5.132-7.764-4.508 2.682-1.549c.014-.007.03-.012.047-.012s.034.004.048.012h-.001l6.429 3.715c1.801 1.053 2.992 2.978 2.992 5.181 0 2.553-1.6 4.733-3.852 5.591l-.041.014v-7.556a1.052 1.052 0 0 0-.536-.885l-.005-.003zm2.676-4.023-.189-.113-6.353-3.702a1.025 1.025 0 0 0-1.05.003l.005-.003-7.77 4.483V9.172c0-.03.015-.057.038-.072l6.429-3.709a5.917 5.917 0 0 1 2.989-.799 5.988 5.988 0 0 1 5.896 7.037l.005-.036v.025zM10.838 17.12l-2.689-1.549a.105.105 0 0 1-.05-.075V8.084a5.988 5.988 0 0 1 9.826-4.589l-.009-.008-.189.107-6.359 3.671c-.313.186-.52.522-.523.906l-.006 8.947zm1.461-3.149 3.463-1.996 3.469 1.996v3.992l-3.457 1.996-3.469-1.996-.006-3.992z"/>
    </symbol>
    <symbol id="icon-postman" viewBox="0 0 32 32">
      <path fill="#ff6c37" style="fill:var(--color14, #ff6c37)" d="M31.869 18.032C32.989 9.266 26.798 1.251 18.047.131S1.25 5.202.13 13.953c-1.12 8.75 5.071 16.781 13.822 17.917 8.766 1.12 16.781-5.071 17.917-13.838z"/>
      <path fill="#fff" style="fill:var(--color1, #fff)" d="m21.775 10.273-6.751 6.751-1.904-1.904c6.639-6.639 7.295-6.063 8.655-4.847z"/>
      <path fill="#ff6c37" style="fill:var(--color14, #ff6c37)" d="M15.024 17.184a.145.145 0 0 1-.112-.048l-1.92-1.904c-.03-.028-.048-.068-.048-.112s.018-.084.048-.112c6.751-6.751 7.455-6.111 8.879-4.831.032.032.048.064.048.112s-.016.08-.048.112l-6.751 6.735c-.016.032-.064.048-.096.048zm-1.679-2.064 1.68 1.68 6.511-6.511c-1.184-1.056-1.984-1.376-8.191 4.831z"/>
      <path fill="#fff" style="fill:var(--color1, #fff)" d="m16.96 18.959-1.84-1.84 6.751-6.751c1.808 1.824-.896 4.783-4.911 8.59z"/>
      <path fill="#ff6c37" style="fill:var(--color14, #ff6c37)" d="M16.96 19.119a.145.145 0 0 1-.112-.048l-1.84-1.84c-.032-.032-.032-.064-.032-.112s.016-.08.048-.112l6.751-6.751c.028-.03.068-.048.112-.048s.084.018.112.048c.385.357.625.865.625 1.429l-.001.061v-.003c-.032 1.776-2.047 4.031-5.535 7.327a.255.255 0 0 1-.128.048zm-1.616-1.999c1.024 1.04 1.456 1.456 1.616 1.616 2.688-2.559 5.295-5.183 5.311-6.991a1.705 1.705 0 0 0-.416-1.152l-6.511 6.527z"/>
      <path fill="#fff" style="fill:var(--color1, #fff)" d="m13.152 15.168 1.36 1.36c.032.032.032.064 0 .096-.016.016-.016.016-.032.016l-2.816.608a.28.28 0 0 1-.304-.224.237.237 0 0 1 .064-.208l1.632-1.632c.032-.032.08-.048.096-.016z"/>
      <path fill="#ff6c37" style="fill:var(--color14, #ff6c37)" d="M11.617 17.408a.417.417 0 0 1-.416-.432c0-.112.048-.224.128-.304l1.632-1.632a.243.243 0 0 1 .32 0l1.36 1.36c.096.08.096.224 0 .32a.258.258 0 0 1-.112.064l-2.816.608c-.032 0-.064.016-.096.016zm1.487-2.064-1.568 1.568c-.032.032-.048.08-.016.128.016.048.064.064.112.048l2.639-.576-1.168-1.168z"/>
      <path fill="#fff" style="fill:var(--color1, #fff)" d="M25.342 6.53c-1.024-.992-2.672-.96-3.663.08s-.96 2.671.08 3.663a2.576 2.576 0 0 0 1.796.726 2.58 2.58 0 0 0 1.351-.38l-.011.006-1.824-1.824 2.272-2.271z"/>
      <path fill="#ff6c37" style="fill:var(--color14, #ff6c37)" d="M23.551 11.153a2.752 2.752 0 1 1 1.904-4.736c.032.032.048.064.048.112s-.016.08-.048.112l-2.16 2.16 1.696 1.696a.155.155 0 0 1 0 .224l-.032.032c-.416.256-.912.4-1.408.4zm0-5.167a2.408 2.408 0 0 0-2.416 2.432 2.406 2.406 0 0 0 2.431 2.415 2.3 2.3 0 0 0 1.072-.256l-1.68-1.664c-.032-.032-.048-.064-.048-.112s.016-.08.048-.112l2.144-2.144a2.371 2.371 0 0 0-1.552-.56z"/>
      <path fill="#fff" style="fill:var(--color1, #fff)" d="m25.39 6.578-.032-.032-2.288 2.255 1.808 1.808a2.93 2.93 0 0 0 .496-.384c.475-.466.77-1.114.77-1.832 0-.709-.288-1.351-.754-1.816z"/>
      <path fill="#ff6c37" style="fill:var(--color14, #ff6c37)" d="M24.894 10.785a.145.145 0 0 1-.112-.048l-1.824-1.824c-.032-.032-.048-.064-.048-.112s.016-.08.048-.112l2.272-2.272c.028-.03.068-.048.112-.048s.084.018.112.048l.048.032a2.766 2.766 0 0 1 .016 3.887 2.63 2.63 0 0 1-.528.416c-.048.016-.08.032-.096.032zm-1.599-1.984 1.616 1.616c.128-.08.256-.192.352-.288.912-.912.96-2.399.08-3.359l-2.048 2.032z"/>
      <path fill="#fff" style="fill:var(--color1, #fff)" d="M22.047 10.561a.98.98 0 0 0-1.392 0l-6.031 6.031 1.008 1.008 6.383-5.599c.416-.352.448-.976.096-1.392-.032-.016-.048-.032-.064-.048z"/>
      <path fill="#ff6c37" style="fill:var(--color14, #ff6c37)" d="M15.616 17.76a.145.145 0 0 1-.112-.048l-1.008-1.008c-.03-.028-.048-.068-.048-.112s.018-.084.048-.112l6.031-6.031a1.137 1.137 0 0 1 1.616 0 1.137 1.137 0 0 1 0 1.616l-.048.048-6.383 5.599c-.016.032-.048.048-.096.048zm-.768-1.168.784.784 6.271-5.503c.352-.288.384-.816.096-1.168s-.816-.384-1.168-.096c-.016.016-.032.032-.064.048l-5.919 5.935z"/>
      <path fill="#fff" style="fill:var(--color1, #fff)" d="M10.001 23.455c-.064.032-.096.096-.08.16l.272 1.152a.306.306 0 0 1-.208.4.321.321 0 0 1-.352-.096l-1.76-1.744 5.743-5.743 1.984.032 1.344 1.344c-.32.272-2.256 2.144-6.943 4.495z"/>
      <path fill="#ff6c37" style="fill:var(--color14, #ff6c37)" d="M9.873 25.326a.436.436 0 0 1-.336-.144l-1.744-1.744c-.032-.032-.048-.064-.048-.112s.016-.08.048-.112l5.743-5.743a.173.173 0 0 1 .112-.048l1.984.032c.048 0 .08.016.112.048l1.344 1.344c.032.032.048.08.048.128s-.016.08-.064.112l-.112.096c-1.696 1.488-3.999 2.976-6.863 4.399l.272 1.136a.505.505 0 0 1-.24.544.549.549 0 0 1-.256.064zm-1.76-1.999 1.648 1.632c.048.08.144.112.224.064s.112-.144.064-.224l-.272-1.152a.292.292 0 0 1 .16-.336c2.832-1.424 5.119-2.895 6.799-4.351l-1.184-1.184-1.84-.032-5.599 5.583z"/>
      <path fill="#fff" style="fill:var(--color1, #fff)" d="m6.514 24.703 1.376-1.376 2.047 2.048-3.263-.224a.255.255 0 0 1-.224-.288c0-.064.016-.128.064-.16z"/>
      <path fill="#ff6c37" style="fill:var(--color14, #ff6c37)" d="m9.937 25.518-3.28-.224c-.24-.016-.4-.224-.384-.464.016-.096.048-.192.128-.256l1.376-1.376c.028-.03.068-.048.112-.048s.084.018.112.048l2.048 2.048c.048.048.064.112.032.176s-.08.096-.144.096zm-2.048-1.967-1.264 1.264c-.048.032-.048.112 0 .144.016.016.032.032.064.032l2.832.192-1.632-1.632zm5.167-5.231a.16.16 0 0 1-.16-.16c0-.048.016-.08.048-.112l1.552-1.552c.028-.03.068-.048.112-.048s.084.018.112.048l1.008 1.008c.048.048.064.096.048.16a.183.183 0 0 1-.128.112l-2.56.544h-.032zm1.552-1.488-1.056 1.056 1.728-.368-.672-.688z"/>
      <path fill="#fff" style="fill:var(--color1, #fff)" d="M15.6 17.616 13.84 18a.239.239 0 0 1-.224-.4l.976-.976 1.008.992z"/>
      <path fill="#ff6c37" style="fill:var(--color14, #ff6c37)" d="M13.808 18.16h-.004a.396.396 0 0 1-.396-.396v-.004a.46.46 0 0 1 .112-.288l.976-.976c.028-.03.068-.048.112-.048s.084.018.112.048l1.008 1.008c.048.048.064.096.048.16a.183.183 0 0 1-.128.112l-1.76.384h-.08zm.8-1.328-.864.864c-.032.032-.032.064-.016.096s.048.048.096.048l1.472-.32-.688-.688zm10.798-8.719c-.032-.096-.144-.144-.24-.112s-.144.144-.112.24c0 .016.016.032.016.048a.597.597 0 0 1-.064.608.194.194 0 0 0 .016.256.18.18 0 0 0 .256-.032c.24-.304.288-.688.128-1.008z"/>
    </symbol>
    <symbol id="icon-prettier-icon-light" viewBox="0 0 32 32">
      <path fill="#cfd4d7" style="fill:var(--color15, #cfd4d7)" opacity=".5" d="M23.619 30.476h7.619a.762.762 0 1 1 0 1.524h-7.619a.762.762 0 1 1 0-1.524zM11.429 30.476h9.143a.762.762 0 1 1 0 1.524h-9.143a.762.762 0 1 1 0-1.524z"/>
      <path fill="#ea5e5e" style="fill:var(--color16, #ea5e5e)" d="M.762 30.476h7.619a.762.762 0 1 1 0 1.524H.762a.762.762 0 1 1 0-1.524z"/>
      <path fill="#cfd4d7" style="fill:var(--color15, #cfd4d7)" opacity=".5" d="M25.143 27.429h6.095a.762.762 0 1 1 0 1.524h-6.095a.762.762 0 1 1 0-1.524zM20.571 27.429h1.524a.762.762 0 1 1 0 1.524h-1.524a.762.762 0 1 1 0-1.524zM11.429 27.429h6.095a.762.762 0 1 1 0 1.524h-6.095a.762.762 0 1 1 0-1.524z"/>
      <path fill="#f7b93e" style="fill:var(--color17, #f7b93e)" d="M6.857 27.429h1.524a.762.762 0 1 1 0 1.524H6.857a.762.762 0 1 1 0-1.524z"/>
      <path fill="#56b3b4" style="fill:var(--color18, #56b3b4)" d="M.762 27.429H3.81a.762.762 0 1 1 0 1.524H.762a.762.762 0 1 1 0-1.524z"/>
      <path fill="#cfd4d7" style="fill:var(--color15, #cfd4d7)" opacity=".5" d="M17.524 24.381h13.714a.762.762 0 1 1 0 1.524H17.524a.762.762 0 1 1 0-1.524zM11.429 24.381h3.048a.762.762 0 1 1 0 1.524h-3.048a.762.762 0 1 1 0-1.524z"/>
      <path fill="#bf85bf" style="fill:var(--color19, #bf85bf)" d="M.762 24.381h7.619a.762.762 0 1 1 0 1.524H.762a.762.762 0 1 1 0-1.524z"/>
      <path fill="#cfd4d7" style="fill:var(--color15, #cfd4d7)" opacity=".5" d="M28.19 21.333h3.048a.762.762 0 1 1 0 1.524H28.19a.762.762 0 1 1 0-1.524zM22.095 21.333h3.048a.762.762 0 1 1 0 1.524h-3.048a.762.762 0 1 1 0-1.524z"/>
      <path fill="#f7b93e" style="fill:var(--color17, #f7b93e)" d="M5.333 21.333h13.714a.762.762 0 1 1 0 1.524H5.333a.762.762 0 1 1 0-1.524z"/>
      <path fill="#bf85bf" style="fill:var(--color19, #bf85bf)" d="M.762 21.333h1.524a.762.762 0 1 1 0 1.524H.762a.762.762 0 1 1 0-1.524z"/>
      <path fill="#cfd4d7" style="fill:var(--color15, #cfd4d7)" opacity=".5" d="M26.667 18.286h4.571a.762.762 0 1 1 0 1.524h-4.571a.762.762 0 1 1 0-1.524z"/>
      <path fill="#bf85bf" style="fill:var(--color19, #bf85bf)" d="M19.048 18.286h4.571a.762.762 0 1 1 0 1.524h-4.571a.762.762 0 1 1 0-1.524z"/>
      <path fill="#ea5e5e" style="fill:var(--color16, #ea5e5e)" d="M9.905 18.286H16a.762.762 0 1 1 0 1.524H9.905a.762.762 0 1 1 0-1.524z"/>
      <path fill="#56b3b4" style="fill:var(--color18, #56b3b4)" d="M.762 18.286h6.095a.762.762 0 1 1 0 1.524H.762a.762.762 0 1 1 0-1.524z"/>
      <path fill="#cfd4d7" style="fill:var(--color15, #cfd4d7)" opacity=".5" d="M28.19 15.238h3.048a.762.762 0 1 1 0 1.524H28.19a.762.762 0 1 1 0-1.524z"/>
      <path fill="#56b3b4" style="fill:var(--color18, #56b3b4)" d="M12.952 15.238h12.19a.762.762 0 1 1 0 1.524h-12.19a.762.762 0 1 1 0-1.524z"/>
      <path fill="#f7b93e" style="fill:var(--color17, #f7b93e)" d="M5.333 15.238h4.571a.762.762 0 1 1 0 1.524H5.333a.762.762 0 1 1 0-1.524z"/>
      <path fill="#ea5e5e" style="fill:var(--color16, #ea5e5e)" d="M.762 15.238h1.524a.762.762 0 1 1 0 1.524H.762a.762.762 0 1 1 0-1.524z"/>
      <path fill="#cfd4d7" style="fill:var(--color15, #cfd4d7)" opacity=".5" d="M29.714 12.19h1.524a.762.762 0 1 1 0 1.524h-1.524a.762.762 0 1 1 0-1.524z"/>
      <path fill="#f7b93e" style="fill:var(--color17, #f7b93e)" d="M19.048 12.19h7.619a.762.762 0 1 1 0 1.524h-7.619a.762.762 0 1 1 0-1.524z"/>
      <path fill="#cfd4d7" style="fill:var(--color15, #cfd4d7)" opacity=".5" d="M11.429 12.19H16a.762.762 0 1 1 0 1.524h-4.571a.762.762 0 1 1 0-1.524z"/>
      <path fill="#bf85bf" style="fill:var(--color19, #bf85bf)" d="M.762 12.19h7.619a.762.762 0 1 1 0 1.524H.762a.762.762 0 1 1 0-1.524z"/>
      <path fill="#cfd4d7" style="fill:var(--color15, #cfd4d7)" opacity=".5" d="M29.714 9.143h1.524a.762.762 0 1 1 0 1.524h-1.524a.762.762 0 1 1 0-1.524z"/>
      <path fill="#ea5e5e" style="fill:var(--color16, #ea5e5e)" d="M19.048 9.143h7.619a.762.762 0 1 1 0 1.524h-7.619a.762.762 0 1 1 0-1.524z"/>
      <path fill="#cfd4d7" style="fill:var(--color15, #cfd4d7)" opacity=".5" d="M11.429 9.143H16a.762.762 0 1 1 0 1.524h-4.571a.762.762 0 1 1 0-1.524z"/>
      <path fill="#56b3b4" style="fill:var(--color18, #56b3b4)" d="M6.857 9.143h1.524a.762.762 0 1 1 0 1.524H6.857a.762.762 0 1 1 0-1.524z"/>
      <path fill="#f7b93e" style="fill:var(--color17, #f7b93e)" d="M.762 9.143H3.81a.762.762 0 1 1 0 1.524H.762a.762.762 0 1 1 0-1.524z"/>
      <path fill="#cfd4d7" style="fill:var(--color15, #cfd4d7)" opacity=".5" d="M28.19 6.095h3.048a.762.762 0 1 1 0 1.524H28.19a.762.762 0 1 1 0-1.524z"/>
      <path fill="#56b3b4" style="fill:var(--color18, #56b3b4)" d="M23.619 6.095h1.524a.762.762 0 1 1 0 1.524h-1.524a.762.762 0 1 1 0-1.524z"/>
      <path fill="#bf85bf" style="fill:var(--color19, #bf85bf)" d="M14.476 6.095h6.095a.762.762 0 1 1 0 1.524h-6.095a.762.762 0 1 1 0-1.524z"/>
      <path fill="#56b3b4" style="fill:var(--color18, #56b3b4)" d="M.762 6.095h10.667a.762.762 0 1 1 0 1.524H.762a.762.762 0 1 1 0-1.524z"/>
      <path fill="#cfd4d7" style="fill:var(--color15, #cfd4d7)" opacity=".5" d="M26.667 3.048h4.571a.762.762 0 1 1 0 1.524h-4.571a.762.762 0 1 1 0-1.524z"/>
      <path fill="#f7b93e" style="fill:var(--color17, #f7b93e)" d="M8.381 3.048h15.238a.762.762 0 1 1 0 1.524H8.381a.762.762 0 1 1 0-1.524z"/>
      <path fill="#ea5e5e" style="fill:var(--color16, #ea5e5e)" d="M.762 3.048h4.571a.762.762 0 1 1 0 1.524H.762a.762.762 0 1 1 0-1.524z"/>
      <path fill="#cfd4d7" style="fill:var(--color15, #cfd4d7)" opacity=".5" d="M22.095 0h9.143a.762.762 0 1 1 0 1.524h-9.143a.762.762 0 1 1 0-1.524z"/>
      <path fill="#56b3b4" style="fill:var(--color18, #56b3b4)" d="M.762 0h18.286a.762.762 0 1 1 0 1.524H.762A.762.762 0 1 1 .762 0z"/>
    </symbol>
    <symbol id="icon-react_light" viewBox="0 0 36 32">
      <path fill="#087ea4" style="fill:var(--color20, #087ea4)" d="M17.844 12.563a3.406 3.406 0 1 0 0 6.812 3.406 3.406 0 0 0 0-6.812z"/>
      <path fill="#087ea4" style="fill:var(--color20, #087ea4)" d="M35.56 16c0-2.674-2.476-5.02-6.419-6.563.053-.348.1-.691.134-1.029.389-3.842-.537-6.616-2.606-7.81-2.315-1.336-5.584-.366-8.889 2.279C14.474.232 11.205-.738 8.891.598c-2.069 1.195-2.995 3.968-2.606 7.81.034.338.08.683.134 1.032-.329.126-.651.258-.961.398C1.938 11.42 0 13.611 0 16.001c0 2.674 2.476 5.02 6.419 6.563-.054.348-.1.691-.134 1.029-.389 3.842.537 6.616 2.606 7.81.711.403 1.517.61 2.335.597 1.96 0 4.248-1.032 6.555-2.876C20.087 30.969 22.376 32 24.338 32a4.603 4.603 0 0 0 2.335-.597c2.069-1.195 2.994-3.968 2.606-7.81a21.679 21.679 0 0 0-.134-1.029c3.943-1.541 6.419-3.89 6.419-6.563zM24.322 1.694a2.962 2.962 0 0 1 1.505.369c1.436.829 2.081 3.08 1.768 6.173-.021.211-.046.424-.077.639A29.921 29.921 0 0 0 22.5 7.822a30.013 30.013 0 0 0-3.425-3.824c1.961-1.516 3.801-2.304 5.245-2.304zm-.675 17.694a36.619 36.619 0 0 1-2.07 3.2 36.79 36.79 0 0 1-3.799.193 37.034 37.034 0 0 1-3.797-.193 36.79 36.79 0 0 1-2.064-3.2A36.438 36.438 0 0 1 10.19 16a37.48 37.48 0 0 1 3.784-6.577 37.034 37.034 0 0 1 7.602-.005c.742 1.029 1.431 2.095 2.065 3.194s1.211 2.23 1.727 3.388a36.685 36.685 0 0 1-1.727 3.388zm2.586-1.255c.398 1.086.725 2.197.979 3.325a26.29 26.29 0 0 1-3.357.809c.432-.651.85-1.328 1.255-2.032.4-.695.775-1.397 1.129-2.098zm-10.835 6.266c.78.048 1.577.075 2.384.075s1.608-.028 2.39-.075a26.479 26.479 0 0 1-2.39 2.51 26.296 26.296 0 0 1-2.384-2.51zm-3.691-2.134a26.299 26.299 0 0 1-3.358-.807c.252-1.127.578-2.236.975-3.32.349.701.723 1.403 1.129 2.098s.827 1.38 1.255 2.032zM9.323 13.86a26.565 26.565 0 0 1-.972-3.308 26.58 26.58 0 0 1 3.35-.812c-.429.649-.849 1.321-1.255 2.023s-.775 1.394-1.129 2.097zm10.841-6.261a37.412 37.412 0 0 0-4.774 0 26.416 26.416 0 0 1 2.384-2.51 26.36 26.36 0 0 1 2.39 2.51zm4.942 4.164a36.884 36.884 0 0 0-1.261-2.033c1.139.196 2.263.467 3.366.811a26.756 26.756 0 0 1-.975 3.32 35.935 35.935 0 0 0-1.129-2.097zM7.97 8.237c-.317-3.092.331-5.343 1.766-6.173.46-.254.98-.381 1.505-.369 1.444 0 3.284.788 5.245 2.304a30.053 30.053 0 0 0-3.427 3.826 30.46 30.46 0 0 0-5.018 1.049 16.417 16.417 0 0 1-.075-.637zm-1.817 3.145c.193-.084.39-.167.591-.251.395 1.665.93 3.294 1.6 4.869a30.2 30.2 0 0 0-1.601 4.879C3.547 19.568 1.694 17.751 1.694 16c0-1.659 1.631-3.342 4.46-4.618zm3.583 18.553c-1.435-.829-2.084-3.081-1.766-6.173.02-.211.046-.423.075-.639 1.639.494 3.318.846 5.018 1.053a30.038 30.038 0 0 0 3.425 3.826c-2.734 2.112-5.231 2.808-6.748 1.933zm17.858-6.173c.314 3.093-.331 5.343-1.768 6.173-1.515.878-4.014.179-6.747-1.933a30.244 30.244 0 0 0 3.424-3.826c1.7-.207 3.378-.559 5.018-1.053.03.216.055.428.077.639zm1.231-2.886a30.312 30.312 0 0 0-1.602-4.877 30.298 30.298 0 0 0 1.601-4.879c3.19 1.311 5.048 3.128 5.048 4.879s-1.853 3.568-5.049 4.879z"/>
    </symbol>
    <symbol id="icon-redux" viewBox="0 0 32 32">
      <path fill="#764abc" style="fill:var(--color21, #764abc)" d="M22.173 21.967c1.181-.122 2.077-1.14 2.036-2.362s-1.059-2.199-2.28-2.199h-.081a2.278 2.278 0 0 0-2.199 2.362c.041.611.285 1.14.651 1.507-1.384 2.729-3.502 4.724-6.678 6.393-2.158 1.14-4.398 1.547-6.638 1.262-1.833-.244-3.258-1.059-4.154-2.403-1.303-1.995-1.425-4.154-.326-6.312.774-1.547 1.995-2.688 2.769-3.258a21.828 21.828 0 0 1-.529-2.077C-1.161 19.156-.55 24.938 1.242 27.667c1.344 2.036 4.072 3.299 7.085 3.299a9.99 9.99 0 0 0 2.443-.285c5.212-1.018 9.162-4.113 11.402-8.715zm7.167-5.05c-3.095-3.624-7.656-5.62-12.868-5.62h-.652a2.238 2.238 0 0 0-1.995-1.222h-.082a2.279 2.279 0 0 0-2.199 2.362 2.287 2.287 0 0 0 2.28 2.199h.081a2.293 2.293 0 0 0 1.995-1.385h.733c3.095 0 6.027.896 8.674 2.647 2.036 1.344 3.502 3.095 4.316 5.213.692 1.71.651 3.38-.081 4.805-1.14 2.158-3.054 3.339-5.579 3.339-1.629 0-3.176-.489-3.991-.855a24.067 24.067 0 0 1-1.832 1.466c1.751.814 3.543 1.262 5.253 1.262 3.909 0 6.8-2.158 7.9-4.317 1.181-2.362 1.099-6.434-1.955-9.896zM8.653 22.659a2.287 2.287 0 0 0 2.28 2.199h.082a2.278 2.278 0 0 0 2.199-2.362 2.287 2.287 0 0 0-2.28-2.199h-.081c-.082 0-.204 0-.285.041-1.67-2.769-2.362-5.782-2.117-9.04.163-2.443.977-4.561 2.402-6.312 1.181-1.507 3.461-2.24 5.009-2.28 4.316-.082 6.149 5.294 6.271 7.452.529.122 1.425.407 2.036.611C23.68 4.172 19.608.751 15.699.751c-3.665 0-7.045 2.647-8.389 6.556-1.873 5.213-.652 10.221 1.629 14.172-.204.285-.326.733-.285 1.181z"/>
    </symbol>
    <symbol id="icon-slack" viewBox="0 0 32 32">
      <path fill="#36c5f0" style="fill:var(--color22, #36c5f0)" d="M11.709 0a3.196 3.196 0 0 0-3.193 3.199 3.197 3.197 0 0 0 3.194 3.199h3.194V3.2a3.2 3.2 0 0 0-3.195-3.201c.001 0 .001 0 0 0zm0 8.533H3.194A3.197 3.197 0 0 0 0 11.732a3.197 3.197 0 0 0 3.193 3.201h8.516a3.197 3.197 0 0 0 3.194-3.199 3.198 3.198 0 0 0-3.194-3.201z"/>
      <path fill="#2eb67d" style="fill:var(--color23, #2eb67d)" d="M31.936 11.733a3.197 3.197 0 0 0-3.194-3.199 3.197 3.197 0 0 0-3.194 3.199v3.201h3.194a3.197 3.197 0 0 0 3.194-3.201zm-8.516 0V3.2A3.197 3.197 0 0 0 20.227.001 3.197 3.197 0 0 0 17.033 3.2v8.533a3.197 3.197 0 0 0 3.193 3.201 3.197 3.197 0 0 0 3.194-3.201z"/>
      <path fill="#ecb22e" style="fill:var(--color24, #ecb22e)" d="M20.226 32a3.197 3.197 0 0 0 3.194-3.199 3.197 3.197 0 0 0-3.194-3.199h-3.194v3.199A3.198 3.198 0 0 0 20.226 32zm0-8.535h8.516a3.197 3.197 0 0 0 3.194-3.199 3.197 3.197 0 0 0-3.193-3.201h-8.516a3.197 3.197 0 0 0-3.194 3.199 3.197 3.197 0 0 0 3.193 3.201z"/>
      <path fill="#e01e5a" style="fill:var(--color25, #e01e5a)" d="M0 20.266a3.197 3.197 0 0 0 3.194 3.199 3.197 3.197 0 0 0 3.194-3.199v-3.199H3.194A3.197 3.197 0 0 0 0 20.266zm8.516 0v8.533A3.197 3.197 0 0 0 11.709 32a3.197 3.197 0 0 0 3.194-3.199v-8.532a3.194 3.194 0 1 0-6.387-.003s0 .001 0 0z"/>
    </symbol>
    <symbol id="icon-svg" viewBox="0 0 32 32">
      <path fill="#ffb13b" style="fill:var(--color26, #ffb13b)" stroke-width="4.054" stroke="#000" d="M7.024 14.309a2.391 2.391 0 1 0 0 3.382h17.952a2.391 2.391 0 1 0 0-3.382z"/>
      <path fill="#ffb13b" style="fill:var(--color26, #ffb13b)" stroke-width="4.054" stroke="#000" d="M10.849 8.458a2.391 2.391 0 1 0-2.391 2.391l12.694 12.694a2.391 2.391 0 1 0 2.391-2.391z"/>
      <path fill="#ffb13b" style="fill:var(--color26, #ffb13b)" stroke-width="4.054" stroke="#000" d="M17.691 7.024a2.391 2.391 0 1 0-3.382 0v17.952a2.391 2.391 0 1 0 3.382 0z"/>
      <path fill="#ffb13b" style="fill:var(--color26, #ffb13b)" stroke-width="4.054" stroke="#000" d="M23.542 10.849a2.391 2.391 0 1 0-2.391-2.391L8.457 21.152a2.391 2.391 0 1 0 2.391 2.391zM-8.976-1.691a2.391 2.391 0 1 0 0 3.382H8.976a2.391 2.391 0 1 0 0-3.382z"/>
      <path fill="#ffb13b" style="fill:var(--color26, #ffb13b)" stroke-width="4.054" stroke="#000" d="M-5.151-7.542a2.391 2.391 0 1 0-2.391 2.391L5.152 7.543a2.391 2.391 0 1 0 2.391-2.391z"/>
      <path fill="#ffb13b" style="fill:var(--color26, #ffb13b)" stroke-width="4.054" stroke="#000" d="M1.691-8.976a2.391 2.391 0 1 0-3.382 0V8.976a2.391 2.391 0 1 0 3.382 0z"/>
      <path fill="#ffb13b" style="fill:var(--color26, #ffb13b)" stroke-width="4.054" stroke="#000" d="M7.542-5.151a2.391 2.391 0 1 0-2.391-2.391L-7.543 5.152a2.391 2.391 0 1 0 2.391 2.391z"/>
    </symbol>
    <symbol id="icon-swagger" viewBox="0 0 32 32">
      <path fill="#85ea2d" style="fill:var(--color27, #85ea2d)" d="M16 31.25C7.578 31.25.75 24.422.75 16S7.578.75 16 .75 31.25 7.578 31.25 16 24.422 31.25 16 31.25z"/>
      <path fill="#173647" style="fill:var(--color28, #173647)" d="M16 1.5c8.008 0 14.5 6.492 14.5 14.5S24.008 30.5 16 30.5 1.5 24.008 1.5 16 7.992 1.5 16 1.5zM16 0C7.163 0 0 7.163 0 16s7.163 16 16 16 16-7.163 16-16S24.837 0 16 0z"/>
      <path fill="#173647" style="fill:var(--color28, #173647)" d="m10.125 10.875-.25 3.25C9.625 14.875 9.25 15.5 8.5 16c1.375.875 1.5 2.125 1.625 3.5v2.125c.125.625.25.75.875.75h.75v1.75c-1.75.25-3.125-.25-3.375-1.625l-.25-1.625v-1.75C8 17.625 7.75 17 6.25 17v-2h.375c.75-.125 1.125-.375 1.375-1.125l.125-1.375.125-2.75c.25-1.25 1-1.875 2.375-1.875h1.125v1.75h-.5c-1 0-1.125.375-1.125 1.25zm2 4a1.127 1.127 0 0 0-.129 2.25h.003c.625 0 1.25-.375 1.25-1V16c0-.625-.5-1.125-1.125-1.125zm3.875 0c-.621 0-1.125.504-1.125 1.125 0 .75.5 1.125 1.125 1.125.75 0 1.125-.5 1.125-1.125s-.5-1.125-1.125-1.125zm3.875 0a1.125 1.125 0 0 0 0 2.25c.625.125 1.125-.5 1.25-1.125 0-.625-.625-1.125-1.25-1.125zm5.5.125c-.75-.125-1.125-.25-1.25-1l-.25-1.25-.125-2.5c-.125-2-1.5-2.625-3.5-2.375v1.75H21c.5 0 .75.125.875.625v1.375l.375 2.625c.125.75.625 1.375 1.25 1.75-1.125.75-1.375 1.75-1.5 3l-.125 2.375c0 .75-.25 1-1 1h-.625v1.75h1.25c1.25 0 2-.625 2.25-1.875l.125-2L24 18.375c.125-.875.5-1.25 1.5-1.375h.25v-2h-.375z"/>
    </symbol>
    <symbol id="icon-tailwindcss" viewBox="0 0 52 32">
      <path fill="#38bdf8" style="fill:var(--color29, #38bdf8)" d="M26.182 0C19.2 0 14.837 3.491 13.091 10.473c2.618-3.491 5.673-4.8 9.164-3.927 1.992.497 3.415 1.943 4.991 3.542 2.567 2.606 5.538 5.621 12.027 5.621 6.982 0 11.345-3.491 13.091-10.473-2.618 3.491-5.673 4.8-9.164 3.927-1.992-.497-3.415-1.943-4.991-3.542C35.642 3.015 32.671 0 26.182 0zM13.091 15.709C6.109 15.709 1.746 19.2 0 26.182c2.618-3.491 5.673-4.8 9.164-3.927 1.992.498 3.415 1.943 4.991 3.542 2.567 2.606 5.538 5.621 12.027 5.621 6.982 0 11.345-3.491 13.091-10.473-2.618 3.491-5.673 4.8-9.164 3.927-1.992-.497-3.415-1.943-4.991-3.542-2.567-2.606-5.538-5.621-12.027-5.621z"/>
    </symbol>
    <symbol id="icon-vitejs" viewBox="0 0 32 32">
      <path d="M31.77 4.724 16.797 31.499a.814.814 0 0 1-1.417.006L.11 4.726a.814.814 0 0 1 .85-1.204l14.99 2.679a.8.8 0 0 0 .294-.001l-.005.001 14.676-2.675a.814.814 0 0 1 .856 1.198z"/>
      <path d="M23.089.008 12.008 2.179a.406.406 0 0 0-.328.374v.001l-.682 11.512-.001.024a.407.407 0 0 0 .501.396l-.003.001 3.085-.712a.407.407 0 0 1 .49.478l-.917 4.488a.407.407 0 0 0 .517.471l1.906-.579a.407.407 0 0 1 .517.472l-1.457 7.05c-.091.441.495.681.74.303l.163-.253 9.029-18.02a.407.407 0 0 0-.441-.582l-3.176.613a.407.407 0 0 1-.468-.512L23.556.519a.407.407 0 0 0-.469-.512z"/>
    </symbol>
    <symbol id="icon-vscode" viewBox="0 0 32 32">
      <path fill="#0065a9" style="fill:var(--color30, #0065a9)" d="M30.868 3.455 24.275.281a1.958 1.958 0 0 0-.865-.197c-.55 0-1.049.223-1.409.584L.417 20.348a1.33 1.33 0 0 0 0 1.971l.001.001 1.763 1.603c.236.215.551.346.897.346.304 0 .585-.102.809-.273l-.003.002L29.877 4.28c.872-.661 2.124-.04 2.124 1.055v-.077c0-.789-.457-1.471-1.121-1.796l-.012-.005z"/>
      <path fill="#007acc" style="fill:var(--color31, #007acc)" d="m30.868 28.545-6.593 3.174c-.253.125-.55.197-.865.197-.55 0-1.049-.223-1.409-.584L.417 11.652a1.333 1.333 0 0 1 0-1.971l.001-.001 1.763-1.603c.236-.215.551-.346.897-.346.304 0 .585.102.809.273l-.003-.002L29.877 27.72c.872.661 2.124.04 2.124-1.055v.077c0 .789-.457 1.471-1.121 1.796l-.012.005z"/>
      <path fill="#1f9cf0" style="fill:var(--color32, #1f9cf0)" d="M24.275 31.72a1.987 1.987 0 0 1-2.274-.387c.738.738 2 .216 2-.828V1.495c0-1.044-1.262-1.566-2-.828a1.989 1.989 0 0 1 2.286-.382L24.275.28l6.592 3.171A2.002 2.002 0 0 1 32 5.253v21.496a2 2 0 0 1-1.121 1.797l-.012.005-6.592 3.17z"/>
      <path style="fill:var(--color33, #000)" opacity=".25" d="m22.672 31.782-.013-.005a1.992 1.992 0 0 1-.672-.443L9.375 19.827l-5.491 4.167a1.326 1.326 0 0 1-1.704-.074L.417 22.316a1.332 1.332 0 0 1 0-1.971l4.764-4.347-4.765-4.347a1.33 1.33 0 0 1 .002-1.97l1.761-1.602a1.328 1.328 0 0 1 1.702-.077l5.494 4.17L21.987.666A1.986 1.986 0 0 1 24.26.279l6.6 3.175a2 2 0 0 1 1.121 1.797v21.496c0 .789-.457 1.472-1.133 1.802l-6.577 3.165a1.988 1.988 0 0 1-1.599.066zm1.313-23.046L14.415 16l9.57 7.264V8.736z"/>
    </symbol>
  </defs>
</svg>
